<svg id="Слой_1" data-name="Слой 1" xmlns="http://www.w3.org/2000/svg" viewBox="0 0 128 128"><defs><style>.cls-1,.cls-3{fill:none;}.cls-2,.cls-3{stroke:#000;stroke-miterlimit:10;}.cls-2{stroke-width:3px;}.cls-3{stroke-width:2px;}</style></defs><title>Безымянный-3</title><path class="cls-1" d="M.5,128.5V.5h128v128ZM8.58,92.42h2.66c9.16,0,18.33-.28,27.48.08a23.16,23.16,0,0,0,20-9.18c3.78-4.73,7-9.88,10.4-14.92C72.82,62.94,76.16,57.27,80,52c1.54-2.11,4-4.5,6.31-4.89,4.56-.77,9.34-.23,14.24-.23V58.61l20-18.42-20.14-18.5V33.75c-3.53,0-6.85.19-10.14,0-8.24-.57-14.72,2.82-19.48,9.13C66.22,49,62.26,55.67,57.94,62.07c-3,4.41-5.92,8.85-9.15,13.07a10.82,10.82,0,0,1-9.5,4.44c-9.33-.25-18.66-.08-28-.08H8.58Zm67.78-19.8c-1.56,2.36-3.08,4.61-4.55,6.89-3.46,5.38-3.41,5.48,1.5,9.8a22.09,22.09,0,0,0,15.94,6c3.7-.13,7.4,0,11.35,0v12l20-18.43c-6.71-6.15-13.22-12.12-20.26-18.59V82.42c-3.86,0-7.44-.13-11,0A9.75,9.75,0,0,1,81,78.73C79.44,76.85,78,74.81,76.36,72.62ZM8.58,49.5H11.5c9.59,0,19.17.07,28.75,0a9.88,9.88,0,0,1,7.2,2.83c1.2,1.12,2.24,2.43,3.48,3.8L58,44.47a21.58,21.58,0,0,0-16-7.88c-10.5,0-21,0-31.49,0-.64,0-1.27.12-2,.19Z" transform="translate(-0.5 -0.5)"/><path class="cls-2" d="M8.58,92.42V79.5h2.73c9.32,0,18.65-.17,28,.08a10.82,10.82,0,0,0,9.5-4.44C52,70.92,55,66.48,57.94,62.07c4.32-6.4,8.28-13.07,12.93-19.23,4.76-6.31,11.24-9.7,19.48-9.13,3.29.23,6.61,0,10.14,0V21.69l20.14,18.5-20,18.42V46.86c-4.9,0-9.68-.54-14.24.23C84,47.48,81.58,49.87,80,52c-3.88,5.29-7.22,11-10.88,16.42-3.37,5-6.62,10.19-10.4,14.92a23.16,23.16,0,0,1-20,9.18c-9.15-.36-18.32-.08-27.48-.08Z" transform="translate(-0.5 -0.5)"/><path class="cls-3" d="M76.36,72.62C78,74.81,79.44,76.85,81,78.73a9.75,9.75,0,0,0,8.32,3.72c3.57-.16,7.15,0,11,0V70.2c7,6.47,13.55,12.44,20.26,18.59l-20,18.43v-12c-3.95,0-7.65-.11-11.35,0a22.09,22.09,0,0,1-15.94-6c-4.91-4.32-5-4.42-1.5-9.8C73.28,77.23,74.8,75,76.36,72.62Z" transform="translate(-0.5 -0.5)"/><path class="cls-3" d="M8.58,49.5V36.78c.7-.07,1.33-.19,2-.19,10.5,0,21,0,31.49,0a21.58,21.58,0,0,1,16,7.88L50.93,56.09c-1.24-1.37-2.28-2.68-3.48-3.8a9.88,9.88,0,0,0-7.2-2.83c-9.58.11-19.16,0-28.75,0Z" transform="translate(-0.5 -0.5)"/></svg>